<svg width="18" height="13" viewBox="0 0 18 13" fill="none" xmlns="http://www.w3.org/2000/svg">
<path d="M16.708 4.33177C16.7374 4.30882 16.7727 4.29455 16.8098 4.2906C16.8469 4.28664 16.8844 4.29314 16.918 4.30937C16.9516 4.3256 16.98 4.35091 17 4.38244C17.0199 4.41396 17.0307 4.45045 17.031 4.48777V11.2878C17.031 11.7121 16.8624 12.1191 16.5624 12.4191C16.2623 12.7192 15.8553 12.8878 15.431 12.8878H1.6C1.17565 12.8878 0.768687 12.7192 0.468629 12.4191C0.168571 12.1191 0 11.7121 0 11.2878L0 4.48777C0.000317177 4.45045 0.0110695 4.41396 0.0310409 4.38244C0.0510124 4.35091 0.0794063 4.3256 0.113012 4.30937C0.146617 4.29314 0.184094 4.28664 0.221203 4.2906C0.258312 4.29455 0.293574 4.30882 0.323 4.33177C1.068 4.91377 2.056 5.64877 5.448 8.11377C6.148 8.62577 7.334 9.70377 8.515 9.69677C9.702 9.70677 10.91 8.60577 11.585 8.11377C14.978 5.64877 15.963 4.91377 16.708 4.33177ZM8.515 8.63177C9.287 8.64477 10.398 7.66077 10.956 7.25477C15.37 4.05477 15.706 3.77177 16.724 2.97377C16.8193 2.89895 16.8964 2.80345 16.9494 2.69449C17.0024 2.58553 17.03 2.46595 17.03 2.34477V1.71377C17.03 1.28942 16.8614 0.882456 16.5614 0.582397C16.2613 0.282339 15.8543 0.11377 15.43 0.11377H1.6C1.17565 0.11377 0.768687 0.282339 0.468629 0.582397C0.168571 0.882456 0 1.28942 0 1.71377L0 2.34577C3.88868e-05 2.46694 0.027603 2.58653 0.0806119 2.69549C0.133621 2.80445 0.210689 2.89995 0.306 2.97477C1.324 3.76977 1.66 4.05277 6.074 7.25577C6.633 7.65777 7.744 8.64277 8.515 8.62877V8.63177Z" fill="#F2BD4D"/>
</svg>
