<svg width="49" height="49" viewBox="0 0 49 49" fill="none" xmlns="http://www.w3.org/2000/svg">
<path d="M16.1815 13.0506C11.4875 14.1516 7.82244 17.8167 6.72138 22.5107C5.92621 25.9006 5.92621 29.4286 6.72138 32.8185C7.82244 37.5125 11.4875 41.1776 16.1815 42.2786C19.5714 43.0738 23.0994 43.0738 26.4893 42.2786C31.1833 41.1776 34.8484 37.5125 35.9494 32.8185M16.1815 13.0506C19.5714 12.2554 23.0994 12.2554 26.4893 13.0506C31.1833 14.1516 34.8484 17.8167 35.9494 22.5107C36.7446 25.9006 36.7446 29.4286 35.9494 32.8185M16.1815 13.0506C15.3691 13.2411 14.5875 13.5085 13.8447 13.8447C15.4511 10.2957 18.6291 7.63187 22.5107 6.72138C25.9006 5.92621 29.4286 5.92621 32.8185 6.72138C37.5125 7.82243 41.1776 11.4875 42.2786 16.1815C43.0738 19.5714 43.0738 23.0994 42.2786 26.4893C41.3681 30.3709 38.7043 33.5489 35.1553 35.1553C35.4915 34.4125 35.7589 33.6309 35.9494 32.8185" stroke="#F2BD4D" stroke-width="3.0625"/>
<path d="M16.1815 13.0506C11.4875 14.1516 7.82244 17.8167 6.72138 22.5107C5.92621 25.9006 5.92621 29.4286 6.72138 32.8185C7.82244 37.5125 11.4875 41.1776 16.1815 42.2786C19.5714 43.0738 23.0994 43.0738 26.4893 42.2786C31.1833 41.1776 34.8484 37.5125 35.9494 32.8185M16.1815 13.0506C19.5714 12.2554 23.0994 12.2554 26.4893 13.0506C31.1833 14.1516 34.8484 17.8167 35.9494 22.5107C36.7446 25.9006 36.7446 29.4286 35.9494 32.8185M16.1815 13.0506C15.3691 13.2411 14.5875 13.5085 13.8447 13.8447M35.9494 32.8185C35.7589 33.6309 35.4915 34.4125 35.1553 35.1553" stroke="white" stroke-width="3.0625"/>
<path d="M15.3125 24.5L19.1725 27.0733C20.5441 27.9877 22.3309 27.9877 23.7025 27.0733L27.5625 24.5" stroke="#F2BD4D" stroke-width="3.0625" stroke-linecap="round"/>
</svg>
