<svg width="44" height="44" viewBox="0 0 44 44" fill="none" xmlns="http://www.w3.org/2000/svg">
<path d="M4.43768 15.9856C5.7041 11.1293 9.57342 7.41403 14.4323 6.38886L15.3607 6.19296C19.7398 5.26901 24.2602 5.26901 28.6393 6.19296L29.5677 6.38886C34.4266 7.41403 38.2959 11.1293 39.5623 15.9856C40.5903 19.9277 40.5903 24.0723 39.5623 28.0144C38.2959 32.8707 34.4266 36.586 29.5677 37.6111L28.6393 37.807C24.2602 38.731 19.7398 38.731 15.3607 37.807L14.4323 37.6111C9.57342 36.586 5.7041 32.8707 4.43768 28.0144C3.40965 24.0723 3.40965 19.9277 4.43768 15.9856Z" stroke="white" stroke-width="2.75"/>
<path d="M11 22H14.6667L18.3333 27.5L25.6667 16.5L29.3333 22H33" stroke="#F2BD4D" stroke-width="2.75" stroke-linecap="round" stroke-linejoin="round"/>
</svg>
