<svg width="116" height="116" viewBox="0 0 116 116" fill="none" xmlns="http://www.w3.org/2000/svg">
<path d="M17.8398 30.4113C24.621 23.0598 34.8822 19.3333 48.3333 19.3333H53.1667V32.9585L49.2807 33.7367C42.659 35.061 38.0528 37.6662 35.5878 41.4893C34.3017 43.549 33.5722 45.9072 33.4708 48.3333H48.3333C49.6152 48.3333 50.8446 48.8426 51.751 49.749C52.6575 50.6554 53.1667 51.8848 53.1667 53.1667V87C53.1667 92.3312 48.8312 96.6667 43.5 96.6667H14.5C13.2181 96.6667 11.9888 96.1574 11.0823 95.251C10.1759 94.3446 9.66668 93.1152 9.66668 91.8333V67.6667L9.68118 53.5582C9.63768 53.0217 8.71935 40.31 17.8398 30.4113ZM96.6667 96.6667H67.6667C66.3848 96.6667 65.1554 96.1574 64.249 95.251C63.3426 94.3446 62.8333 93.1152 62.8333 91.8333V67.6667L62.8478 53.5582C62.8043 53.0217 61.886 40.31 71.0065 30.4113C77.7877 23.0598 88.0489 19.3333 101.5 19.3333H106.333V32.9585L102.447 33.7367C95.8257 35.061 91.2195 37.6662 88.7545 41.4893C87.4683 43.549 86.7389 45.9072 86.6375 48.3333H101.5C102.782 48.3333 104.011 48.8426 104.918 49.749C105.824 50.6554 106.333 51.8848 106.333 53.1667V87C106.333 92.3312 101.998 96.6667 96.6667 96.6667Z" fill="white"/>
</svg>
