<svg width="44" height="44" viewBox="0 0 44 44" fill="none" xmlns="http://www.w3.org/2000/svg">
<path d="M29.1049 35.7269L29.4359 35.498C30.4717 34.7817 30.9897 34.4235 31.453 34.0395C33.9707 31.9529 35.6616 29.0444 36.2244 25.8327C36.328 25.2416 36.3818 24.6163 36.4895 23.3657L36.5451 22.7191C36.7233 20.6491 36.7055 18.5671 36.4921 16.5004L36.426 15.8609C36.0524 12.2443 33.8322 9.07448 30.5514 7.47382C25.1573 4.84206 18.8427 4.84206 13.4486 7.47382C10.1678 9.07448 7.94757 12.2443 7.574 15.8609L7.50793 16.5004C7.29446 18.5671 7.2767 20.6491 7.45488 22.7191L7.51054 23.3657C7.61819 24.6163 7.67201 25.2416 7.77559 25.8327C8.33839 29.0444 10.0294 31.9529 12.547 34.0395C13.0103 34.4235 13.5284 34.7818 14.5641 35.498L14.8951 35.7269C16.3033 36.7007 17.0075 37.1876 17.7132 37.526C20.422 38.8247 23.578 38.8247 26.2868 37.526C26.9925 37.1876 27.6967 36.7007 29.1049 35.7269Z" stroke="#F2BD4D" stroke-width="2.75"/>
<path d="M36.4895 23.3657L36.5451 22.7191C36.7233 20.6491 36.7055 18.5671 36.4921 16.5004L36.426 15.8609C36.0524 12.2443 33.8322 9.07448 30.5514 7.47382C25.1573 4.84206 18.8427 4.84206 13.4486 7.47382C10.1678 9.07448 7.94757 12.2443 7.574 15.8609L7.50793 16.5004C7.29446 18.5671 7.2767 20.6491 7.45488 22.7191L7.51054 23.3657C7.61819 24.6163 7.67201 25.2416 7.77559 25.8327C8.33839 29.0444 10.0294 31.9529 12.547 34.0395C13.0103 34.4235 13.5284 34.7818 14.5641 35.498L14.8951 35.7269C16.3033 36.7007 17.0075 37.1876 17.7132 37.526" stroke="white" stroke-width="2.75" stroke-linecap="round"/>
<path d="M16.9583 21.5417L20.625 25.2083L27.0417 18.3333" stroke="#F2BD4D" stroke-width="2.75" stroke-linecap="round" stroke-linejoin="round"/>
</svg>
