<svg width="49" height="49" viewBox="0 0 49 49" fill="none" xmlns="http://www.w3.org/2000/svg">
<path d="M11.2292 18.375H7.14584" stroke="#F2BD4D" stroke-width="3.0625" stroke-linecap="round"/>
<path d="M10.2083 30.625L8.16666 30.625" stroke="#F2BD4D" stroke-width="3.0625" stroke-linecap="round"/>
<path d="M8.16668 24.5H4.08334" stroke="#F2BD4D" stroke-width="3.0625" stroke-linecap="round"/>
<path d="M24.5835 26.0617C25.4292 26.0617 26.1147 25.3761 26.1147 24.5304C26.1147 23.6847 25.4292 22.9992 24.5835 22.9992V26.0617ZM18.9221 26.0617H24.5835V22.9992H18.9221V26.0617Z" fill="#F2BD4D"/>
<path d="M24.1669 9.81751L24.8908 8.46815L24.1669 9.81751ZM41.9341 19.3485L41.2103 20.6979L41.9341 19.3485ZM41.9268 29.6967L42.6485 31.0472L41.9268 29.6967ZM24.169 39.1865L23.4473 37.836L24.169 39.1865ZM16.6126 32.2443L15.1457 31.8051H15.1457L16.6126 32.2443ZM16.6014 16.7496L15.134 17.1873L16.6014 16.7496ZM18.7477 23.9458L17.2803 24.3835L18.7477 23.9458ZM23.4431 11.1669L41.2103 20.6979L42.658 17.9992L24.8908 8.46815L23.4431 11.1669ZM41.2051 28.3462L23.4473 37.836L24.8907 40.537L42.6485 31.0472L41.2051 28.3462ZM18.0795 32.6835L20.214 25.5542L17.2802 24.6758L15.1457 31.8051L18.0795 32.6835ZM20.2151 23.5082L18.0687 16.312L15.134 17.1873L17.2803 24.3835L20.2151 23.5082ZM23.4473 37.836C21.9505 38.6358 20.3927 38.2999 19.2752 37.2732C18.1469 36.2367 17.5267 34.5298 18.0795 32.6835L15.1457 31.8051C14.2388 34.834 15.2579 37.7412 17.2033 39.5285C19.1595 41.3256 22.1097 42.0232 24.8907 40.537L23.4473 37.836ZM41.2103 20.6979C44.1132 22.2551 44.1095 26.7941 41.2051 28.3462L42.6485 31.0472C47.7104 28.3421 47.7153 20.7121 42.658 17.9992L41.2103 20.6979ZM24.8908 8.46815C22.1114 6.97718 19.1597 7.67038 17.2008 9.46525C15.2527 11.2502 14.2301 14.1567 15.134 17.1873L18.0687 16.312C17.5177 14.4645 18.1401 12.7582 19.2697 11.7232C20.3885 10.6981 21.947 10.3643 23.4431 11.1669L24.8908 8.46815ZM20.214 25.5542C20.4138 24.8869 20.4142 24.1757 20.2151 23.5082L17.2803 24.3835C17.3088 24.4789 17.3087 24.5805 17.2802 24.6758L20.214 25.5542Z" fill="white"/>
</svg>
