<svg width="13" height="18" viewBox="0 0 13 18" fill="none" xmlns="http://www.w3.org/2000/svg">
<path d="M5.55003 17.0062C0.86903 10.2212 3.05176e-05 9.52421 3.05176e-05 7.03021C3.05055e-05 6.21799 0.16001 5.41372 0.470836 4.66332C0.781661 3.91292 1.23724 3.23109 1.81158 2.65676C2.38591 2.08243 3.06773 1.62685 3.81813 1.31602C4.56853 1.00519 5.3728 0.845215 6.18503 0.845215C6.99726 0.845215 7.80153 1.00519 8.55193 1.31602C9.30233 1.62685 9.98416 2.08243 10.5585 2.65676C11.1328 3.23109 11.5884 3.91292 11.8992 4.66332C12.2101 5.41372 12.37 6.21799 12.37 7.03021C12.37 9.52421 11.501 10.2202 6.82003 17.0062C6.7489 17.1089 6.65392 17.1929 6.54324 17.2509C6.43256 17.3088 6.30948 17.3391 6.18453 17.3391C6.05958 17.3391 5.9365 17.3088 5.82582 17.2509C5.71514 17.1929 5.62016 17.1089 5.54903 17.0062H5.55003ZM6.18603 9.60621C6.69571 9.60602 7.19389 9.45469 7.61757 9.17136C8.04124 8.88803 8.37139 8.48543 8.56625 8.01447C8.76112 7.54351 8.81195 7.02534 8.71232 6.52549C8.61269 6.02564 8.36708 5.56655 8.00654 5.20629C7.646 4.84603 7.18672 4.60078 6.6868 4.50154C6.18687 4.4023 5.66874 4.45353 5.19793 4.64876C4.72712 4.84399 4.32478 5.17445 4.04178 5.59834C3.75878 6.02224 3.60783 6.52053 3.60803 7.03021C3.60803 7.71368 3.87954 8.36915 4.36282 8.85243C4.8461 9.33571 5.50157 9.60721 6.18503 9.60721L6.18603 9.60621Z" fill="#F2BD4D"/>
</svg>
