<svg width="49" height="49" viewBox="0 0 49 49" fill="none" xmlns="http://www.w3.org/2000/svg">
<path d="M7.82627 31.1323L6.33372 31.4744L7.82627 31.1323ZM7.82627 19.0962L6.33372 18.7541L7.82627 19.0962ZM41.1737 19.0962L42.6663 18.7541L41.1737 19.0962ZM41.1737 31.1323L39.6812 30.7902L41.1737 31.1323ZM30.3803 42.1786L30.7377 43.6676L30.3803 42.1786ZM18.6197 42.1786L18.2623 43.6676L18.6197 42.1786ZM18.6197 8.04987L18.2623 6.56092L18.6197 8.04987ZM30.3803 8.04987L30.7377 6.56092L30.3803 8.04987ZM18.0077 6.125C18.0077 5.27931 17.3221 4.59375 16.4764 4.59375C15.6307 4.59375 14.9452 5.27931 14.9452 6.125H18.0077ZM14.9452 11.2572C14.9452 12.1029 15.6307 12.7885 16.4764 12.7885C17.3221 12.7885 18.0077 12.1029 18.0077 11.2572H14.9452ZM34.0548 6.125C34.0548 5.27931 33.3693 4.59375 32.5236 4.59375C31.6779 4.59375 30.9923 5.27931 30.9923 6.125H34.0548ZM30.9923 11.2572C30.9923 12.1029 31.6779 12.7885 32.5236 12.7885C33.3693 12.7885 34.0548 12.1029 34.0548 11.2572H30.9923ZM9.31882 30.7902C8.46317 27.0571 8.46317 23.1715 9.31882 19.4383L6.33372 18.7541C5.37487 22.9376 5.37487 27.2909 6.33372 31.4744L9.31882 30.7902ZM39.6812 19.4383C40.5368 23.1715 40.5368 27.057 39.6812 30.7902L42.6663 31.4744C43.6251 27.2909 43.6251 22.9376 42.6663 18.7541L39.6812 19.4383ZM30.0229 40.6897C26.3901 41.5618 22.6099 41.5618 18.9771 40.6897L18.2623 43.6676C22.3649 44.6525 26.6351 44.6525 30.7377 43.6676L30.0229 40.6897ZM18.9771 9.53882C22.6099 8.66672 26.3901 8.66672 30.0229 9.53882L30.7377 6.56092C26.6351 5.57602 22.3649 5.57602 18.2623 6.56092L18.9771 9.53882ZM18.9771 40.6897C14.202 39.5433 10.4486 35.7196 9.31882 30.7902L6.33372 31.4744C7.7164 37.5071 12.3263 42.2426 18.2623 43.6676L18.9771 40.6897ZM30.7377 43.6676C36.6737 42.2426 41.2836 37.5071 42.6663 31.4744L39.6812 30.7902C38.5514 35.7196 34.798 39.5433 30.0229 40.6897L30.7377 43.6676ZM30.0229 9.53882C34.798 10.6852 38.5514 14.5089 39.6812 19.4383L42.6663 18.7541C41.2836 12.7214 36.6737 7.98592 30.7377 6.56092L30.0229 9.53882ZM18.2623 6.56092C12.3263 7.98592 7.7164 12.7214 6.33372 18.7541L9.31882 19.4383C10.4486 14.5089 14.202 10.6852 18.9771 9.53882L18.2623 6.56092ZM14.9452 6.125V11.2572H18.0077V6.125H14.9452ZM30.9923 6.125V11.2572H34.0548V6.125H30.9923Z" fill="#F2BD4D"/>
<path d="M6.33372 31.4744C6.52265 32.2987 7.34405 32.8138 8.16836 32.6249C8.99267 32.436 9.50775 31.6146 9.31882 30.7903L6.33372 31.4744ZM7.82627 19.0962L6.33372 18.7541L7.82627 19.0962ZM41.1737 19.0962L42.6663 18.7541L41.1737 19.0962ZM41.1737 31.1323L39.6812 30.7902L41.1737 31.1323ZM30.0229 40.6897C29.2005 40.8871 28.6939 41.7138 28.8914 42.5361C29.0888 43.3584 29.9154 43.865 30.7377 43.6676L30.0229 40.6897ZM18.6197 8.04989L18.2623 6.56094L18.6197 8.04989ZM30.3803 8.04989L30.7377 6.56094L30.3803 8.04989ZM9.31882 30.7903C8.46317 27.0571 8.46317 23.1715 9.31882 19.4383L6.33372 18.7541C5.37487 22.9376 5.37487 27.291 6.33372 31.4744L9.31882 30.7903ZM39.6812 19.4383C40.5368 23.1715 40.5368 27.0571 39.6812 30.7902L42.6663 31.4744C43.6251 27.291 43.6251 22.9376 42.6663 18.7541L39.6812 19.4383ZM18.9771 9.53884C22.6099 8.66674 26.3901 8.66674 30.0229 9.53883L30.7377 6.56094C26.6351 5.57604 22.3649 5.57604 18.2623 6.56094L18.9771 9.53884ZM30.7377 43.6676C36.6737 42.2426 41.2836 37.5071 42.6663 31.4744L39.6812 30.7902C38.5514 35.7196 34.798 39.5434 30.0229 40.6897L30.7377 43.6676ZM30.0229 9.53883C34.798 10.6852 38.5514 14.509 39.6812 19.4383L42.6663 18.7541C41.2836 12.7214 36.6737 7.98594 30.7377 6.56094L30.0229 9.53883ZM18.2623 6.56094C12.3263 7.98594 7.7164 12.7214 6.33372 18.7541L9.31882 19.4383C10.4486 14.5089 14.202 10.6852 18.9771 9.53884L18.2623 6.56094Z" fill="white"/>
<path d="M18.0077 6.125C18.0077 5.27931 17.3221 4.59375 16.4764 4.59375C15.6307 4.59375 14.9452 5.27931 14.9452 6.125H18.0077ZM14.9452 11.2572C14.9452 12.1029 15.6307 12.7885 16.4764 12.7885C17.3221 12.7885 18.0077 12.1029 18.0077 11.2572H14.9452ZM34.0548 6.125C34.0548 5.27931 33.3693 4.59375 32.5236 4.59375C31.6779 4.59375 30.9923 5.27931 30.9923 6.125H34.0548ZM30.9923 11.2572C30.9923 12.1029 31.6779 12.7885 32.5236 12.7885C33.3693 12.7885 34.0548 12.1029 34.0548 11.2572H30.9923ZM14.9452 6.125V11.2572H18.0077V6.125H14.9452ZM30.9923 6.125V11.2572H34.0548V6.125H30.9923Z" fill="#F2BD4D"/>
<path d="M28.5833 26.5417H20.4167" stroke="#F2BD4D" stroke-width="3.0625" stroke-linecap="round"/>
</svg>
