<svg width="17" height="18" viewBox="0 0 17 18" fill="none" xmlns="http://www.w3.org/2000/svg">
<path d="M15.896 1.61858L12.545 0.84558C12.3683 0.805346 12.183 0.828089 12.0213 0.909883C11.8595 0.991676 11.7314 1.12739 11.659 1.29358L10.111 4.90158C10.0454 5.05538 10.0316 5.22633 10.0716 5.38867C10.1117 5.551 10.2034 5.69592 10.333 5.80158L12.285 7.40158C11.1028 9.90927 9.0847 11.9274 6.57701 13.1096L4.97701 11.1576C4.87125 11.0281 4.72633 10.9365 4.56404 10.8965C4.40174 10.8564 4.23084 10.8702 4.07701 10.9356L0.47101 12.4816C0.304149 12.5541 0.167817 12.6826 0.0854955 12.8449C0.00317372 13.0072 -0.0199844 13.1931 0.0200097 13.3706L0.79301 16.7206C0.832186 16.8912 0.928108 17.0434 1.06508 17.1524C1.20205 17.2614 1.37196 17.3207 1.54701 17.3206C3.51008 17.3208 5.45398 16.9344 7.26767 16.1833C9.08137 15.4322 10.7293 14.3311 12.1174 12.943C13.5055 11.5549 14.6066 9.90694 15.3577 8.09324C16.1088 6.27955 16.4953 4.33565 16.495 2.37258C16.4954 2.19762 16.4363 2.02773 16.3275 1.89074C16.2187 1.75375 16.0665 1.65779 15.896 1.61858Z" fill="#F2BD4D"/>
</svg>
