<svg width="49" height="49" viewBox="0 0 49 49" fill="none" xmlns="http://www.w3.org/2000/svg">
<path d="M19.7101 9.36403C21.503 5.04532 27.497 5.04533 29.2899 9.36403L30.5387 12.3721C31.273 14.1408 32.885 15.3669 34.7548 15.5788L38.2397 15.9737C42.6408 16.4724 44.4586 22 41.2443 25.1101L38.2854 27.9732C36.9844 29.232 36.4096 31.086 36.764 32.88L37.4784 36.4965C38.3827 41.0742 33.4786 44.5305 29.6079 42.0434L27.2707 40.5417C25.5773 39.4536 23.4227 39.4536 21.7293 40.5417L19.3921 42.0434C15.5214 44.5305 10.6173 41.0742 11.5216 36.4965L12.236 32.88C12.5904 31.086 12.0156 29.232 10.7146 27.9732L7.7557 25.1101C4.54144 22 6.35921 16.4724 10.7603 15.9737L14.2452 15.5788C16.115 15.3669 17.727 14.1408 18.4613 12.3721L19.7101 9.36403Z" stroke="#F2BD4D" stroke-width="3.0625" stroke-linecap="round" stroke-linejoin="round"/>
<path d="M21.7293 40.5417L19.3921 42.0434C15.5214 44.5305 10.6173 41.0742 11.5216 36.4965L12.236 32.88C12.5904 31.086 12.0156 29.232 10.7146 27.9732L7.7557 25.1101C4.54144 22 6.35921 16.4724 10.7603 15.9737L14.2452 15.5788C16.115 15.3669 17.727 14.1408 18.4613 12.3721L19.7101 9.36403C21.503 5.04532 27.497 5.04532 29.2899 9.36403L30.5387 12.3721C31.273 14.1408 32.885 15.3669 34.7548 15.5788L38.2397 15.9737C42.6408 16.4724 44.4586 22 41.2443 25.1101L38.2854 27.9732C36.9844 29.232 36.4096 31.086 36.764 32.88" stroke="white" stroke-width="3.0625" stroke-linecap="round" stroke-linejoin="round"/>
</svg>
