<svg width="21" height="20" viewBox="0 0 21 20" fill="none" xmlns="http://www.w3.org/2000/svg">
<path d="M15.9185 12.3201C15.6595 12.5711 15.5405 12.9341 15.5995 13.2901L16.4885 18.2101C16.5635 18.6271 16.3875 19.0491 16.0385 19.2901C15.6965 19.5401 15.2415 19.5701 14.8685 19.3701L10.4395 17.0601C10.2855 16.9781 10.1145 16.9341 9.93949 16.9291H9.66849C9.57449 16.9431 9.48249 16.9731 9.39849 17.0191L4.96849 19.3401C4.74949 19.4501 4.50149 19.4891 4.25849 19.4501C3.66649 19.3381 3.27149 18.7741 3.36849 18.1791L4.25849 13.2591C4.31749 12.9001 4.19849 12.5351 3.93949 12.2801L0.328494 8.78012C0.0264944 8.48712 -0.0785057 8.04712 0.0594943 7.65012C0.193494 7.25412 0.535494 6.96512 0.948494 6.90012L5.91849 6.17912C6.29649 6.14012 6.62849 5.91012 6.79849 5.57012L8.98849 1.08012C9.04049 0.980122 9.10749 0.888122 9.18849 0.810122L9.27849 0.740122C9.32549 0.688122 9.37949 0.645122 9.43949 0.610122L9.54849 0.570122L9.71849 0.500122H10.1395C10.5155 0.539122 10.8465 0.764122 11.0195 1.10012L13.2385 5.57012C13.3985 5.89712 13.7095 6.12412 14.0685 6.17912L19.0385 6.90012C19.4585 6.96012 19.8095 7.25012 19.9485 7.65012C20.0795 8.05112 19.9665 8.49112 19.6585 8.78012L15.9185 12.3201Z" fill="#F2BD4D"/>
</svg>
